#N canvas 827 239 790 225 12;
#X obj 0 0 cnv 15 790 225 empty empty empty 20 12 0 14 #cfd0c9 #111111 0;
#N canvas 0 50 1458 761 code 0;
#X obj 28 34 inlet~;
#X obj 387 34 inlet~;
#X text 8 10 Left input;
#X text 360 9 Right input;
#X obj 1117 166 r \$0-oversampling-s;
#X obj 1117 192 + 1;
#X msg 1117 245 1;
#X msg 1191 245 2;
#X text 1254 384 Oversampling factor;
#X obj 26 209 *~;
#X obj 387 209 *~;
#X obj 213 209 *~;
#X obj 579 209 *~;
#X obj 51 114 == 0;
#X obj 412 111 == 0;
#X obj 51 140 pack f 5;
#X obj 51 166 line~;
#X obj 412 163 line~;
#X obj 238 34 r \$0-switcher-s;
#X obj 238 140 pack f 5;
#X obj 238 166 line~;
#X obj 238 114 == 1;
#X obj 412 137 pack f 5;
#X obj 604 173 line~;
#X obj 604 147 pack f 5;
#X obj 604 121 == 1;
#X obj 1105 607 samplerate~;
#X obj 1105 633 / 2;
#X obj 1105 659 * 90.7;
#X obj 1105 685 / 100;
#X obj 1105 711 s \$0-alias-cutoff;
#X obj 1105 580 loadbang;
#X obj 724 461 expr~ ($v1 * (1 - $v3 * $v3)) + ($v2 * ($v3 * $v3));
#X obj 1017 347 r \$0-mix-s;
#X obj 1017 393 sig~;
#X obj 341 624 outlet~;
#X obj 724 634 outlet~;
#X text 1008 605 Get sample rate;
#X text 975 657 Get anti-alias cutoff;
#X obj 1017 371 / 100;
#X text 1254 365 Blocksize \, overlap \, oversampling;
#X obj 341 550 *~;
#X obj 366 495 r \$0-output-s;
#X obj 366 521 expr pow(10 \, $f1 / 20);
#X text 171 519 Conversion dB peak to lineal;
#X obj 224 650 - 100;
#X obj 224 624 env~ 8192 4096;
#X obj 437 650 - 97;
#X obj 437 624 env~ 512 256;
#X obj 437 676 s \$0-left.out_pk;
#X obj 224 676 s \$0-left.out_rms;
#X obj 724 550 *~;
#X obj 749 495 r \$0-output-s;
#X obj 749 521 expr pow(10 \, $f1 / 20);
#X text 551 519 Conversion dB peak to lineal;
#X obj 607 660 - 100;
#X obj 607 634 env~ 8192 4096;
#X obj 820 660 - 97;
#X obj 820 634 env~ 512 256;
#X obj 607 686 s \$0-right.out_rms;
#X obj 820 686 s \$0-right.out_pk;
#X obj 21 365 - 100;
#X obj 21 339 env~ 8192 4096;
#X obj 21 391 s \$0-left.in_rms;
#X obj 749 365 - 100;
#X obj 749 339 env~ 8192 4096;
#X obj 884 365 - 97;
#X obj 884 339 env~ 512 256;
#X obj 749 391 s \$0-right.in_rms;
#X obj 884 391 s \$0-right.in_pk;
#X obj 147 365 - 97;
#X obj 147 339 env~ 512 256;
#X obj 147 391 s \$0-left.in_pk;
#X text 428 208 R bypass;
#X text 67 208 L bypass;
#X text 254 208 L on;
#X text 625 208 R on;
#X obj 26 235 throw~ \$0-bypass_L;
#X obj 387 235 throw~ \$0-bypass_R;
#X obj 409 550 catch~ \$0-bypass_L;
#X obj 573 550 catch~ \$0-bypass_R;
#X obj 213 235 throw~ \$0-left_signal;
#X obj 341 302 catch~ \$0-left_signal;
#X obj 531 302 catch~ \$0-right_signal;
#X obj 579 235 throw~ \$0-right_signal;
#X obj 1201 544 bng 25 250 50 0 empty empty empty 17 7 0 10 #333333 #eeeeee #111111;
#X obj 1169 80 del 10;
#X obj 969 120 s \$0-input-r;
#X obj 1067 120 s \$0-thresh-r;
#X obj 1169 120 s \$0-mix-r;
#X obj 1259 120 s \$0-output-r;
#X obj 875 94 loadbang;
#X obj 875 120 del 10;
#X obj 875 181 s \$0-oversampling-r;
#X msg 875 147 0;
#X text 697 146 No oversampling by default;
#X text 459 436 Wet;
#X text 321 436 Dry;
#X text 605 436 Mix;
#X text 836 436 Wet;
#X text 698 436 Dry;
#X text 982 436 Mix;
#X obj 341 461 expr~ ($v1 * (1 - $v3 * $v3)) + ($v2 * ($v3 * $v3));
#N canvas 0 50 1357 751 tanh_clipper 0;
#X obj 19 9 inlet~;
#X obj 19 100 *~;
#X text 70 8 Left input;
#X obj 44 45 r \$0-input-s;
#X obj 44 70 expr pow(10 \, $f1/20);
#X text 141 44 Conversion dB peak to lineal;
#X obj 19 195 lop~;
#X obj 19 250 lop~;
#X obj 19 304 lop~;
#X obj 19 349 lop~;
#X obj 78 100 r \$0-alias-cutoff;
#X obj 46 624 r \$0-alias-cutoff;
#X obj 19 650 lop~;
#X text 93 249 Pre-filtering stage;
#X text 56 649 Post-filtering stage;
#X obj 19 678 lop~ 8000;
#X text 93 677 Color filter;
#X obj 19 710 outlet~;
#X text 1180 676 Oversampling;
#X obj 1139 678 inlet;
#X obj 19 420 /~;
#X obj 333 109 pack f 5;
#X obj 333 135 line~;
#X obj 19 594 *~;
#X obj 19 447 expr~ if(abs($v1) < ($v2 - ($v2 * $v3)) \, $v1 \, if(abs($v1) < ($v2 + ($v2 * $v3)) \, (($v1 / (abs($v1) + 1e-6)) * ((pow(abs($v1) - ($v2 - ($v2 * $v3)) \, 2) / (4 * ($v2 * $v3))) + ($v2 - ($v2 * $v3)))) \, ($v1 / (abs($v1) + 1e-6)) * $v2));
#X obj 428 230 abs~;
#X obj 428 256 -~;
#X obj 428 307 max~ 0;
#X obj 428 383 +~ 0.1;
#X obj 428 282 abs~;
#X obj 428 357 *~ 0.15;
#X obj 428 334 expr~ 1 - abs($v1 - $v2);
#X obj 19 523 expr~ tanh($v1);
#X obj 333 77 expr pow(10 \, $f1 / 20);
#X obj 333 49 r \$0-thresh-s;
#X text 479 76 Conversion dB peak to lineal;
#X obj 679 9 inlet~;
#X obj 679 98 *~;
#X obj 704 45 r \$0-input-s;
#X obj 704 70 expr pow(10 \, $f1/20);
#X text 801 44 Conversion dB peak to lineal;
#X obj 679 195 lop~;
#X obj 679 250 lop~;
#X obj 679 304 lop~;
#X obj 679 349 lop~;
#X obj 738 100 r \$0-alias-cutoff;
#X obj 706 624 r \$0-alias-cutoff;
#X obj 679 650 lop~;
#X text 753 249 Pre-filtering stage;
#X text 716 649 Post-filtering stage;
#X obj 679 678 lop~ 8000;
#X text 753 677 Color filter;
#X obj 679 710 outlet~;
#X obj 679 420 /~;
#X obj 993 109 pack f 5;
#X obj 993 135 line~;
#X obj 679 594 *~;
#X obj 679 447 expr~ if(abs($v1) < ($v2 - ($v2 * $v3)) \, $v1 \, if(abs($v1) < ($v2 + ($v2 * $v3)) \, (($v1 / (abs($v1) + 1e-6)) * ((pow(abs($v1) - ($v2 - ($v2 * $v3)) \, 2) / (4 * ($v2 * $v3))) + ($v2 - ($v2 * $v3)))) \, ($v1 / (abs($v1) + 1e-6)) * $v2));
#X obj 1088 230 abs~;
#X obj 1088 256 -~;
#X obj 1088 307 max~ 0;
#X obj 1088 383 +~ 0.1;
#X obj 1088 282 abs~;
#X obj 1088 357 *~ 0.15;
#X obj 1088 334 expr~ 1 - abs($v1 - $v2);
#X obj 679 523 expr~ tanh($v1);
#X obj 993 77 expr pow(10 \, $f1 / 20);
#X obj 993 49 r \$0-thresh-s;
#X text 1139 76 Conversion dB peak to lineal;
#X text 730 8 Right input;
#X text 736 709 Right output;
#X text 80 709 Left output;
#X obj 1139 704 block~ 64 1 1;
#X obj 103 135 s \$0-gain-link;
#X text 66 419 Threshold;
#X text 66 593 Threshold;
#X text 726 419 Threshold;
#X text 726 593 Threshold;
#X connect 0 0 1 0;
#X connect 0 0 25 0 64.................H....jI....B....YB...f....Py....H....zL....B....YF...f....PlA...JC....;
#X connect 1 0 6 0;
#X connect 3 0 4 0;
#X connect 3 0 73 0;
#X connect 4 0 1 1;
#X connect 6 0 7 0;
#X connect 7 0 8 0;
#X connect 8 0 9 0;
#X connect 9 0 20 0;
#X connect 10 0 6 1 32.................l....D9+++uI....g++++yD....;
#X connect 10 0 8 1 32.................lB...D9+++uo....g++++mK....;
#X connect 10 0 7 1 32.................vA...D9+++Ob....g++++OH....;
#X connect 10 0 9 1 32.................UC...D9+++e0....g++++aN....;
#X connect 11 0 12 1;
#X connect 12 0 15 0;
#X connect 15 0 17 0;
#X connect 19 0 72 0;
#X connect 20 0 24 0;
#X connect 21 0 22 0;
#X connect 22 0 20 1 32.................zC....t+++O8....f6+++qP....;
#X connect 22 0 23 1 32.................bF....t+++OmA...f6+++ia....;
#X connect 22 0 24 1 32.................KD...L4++++BA...S9+++WR....;
#X connect 22 0 26 1 32.................h....fG...fH....3A...XF....;
#X connect 22 0 31 1 32.................S....vN...vD....rC...PK....;
#X connect 23 0 12 0;
#X connect 24 0 32 0;
#X connect 25 0 26 0;
#X connect 26 0 29 0;
#X connect 27 0 31 0;
#X connect 28 0 24 2;
#X connect 29 0 27 0;
#X connect 30 0 28 0;
#X connect 31 0 30 0;
#X connect 32 0 23 0;
#X connect 33 0 21 0;
#X connect 34 0 33 0;
#X connect 36 0 37 0;
#X connect 36 0 58 0 64.................G....jI...vA....YB...b....Py....G....zL...vA....YF...b....PlA...JC....;
#X connect 37 0 41 0;
#X connect 38 0 39 0;
#X connect 39 0 37 1;
#X connect 41 0 42 0;
#X connect 42 0 43 0;
#X connect 43 0 44 0;
#X connect 44 0 53 0;
#X connect 45 0 41 1 32.................l....D9+++uI....g++++yD....;
#X connect 45 0 43 1 32.................lB...D9+++uo....g++++mK....;
#X connect 45 0 42 1 32.................vA...D9+++Ob....g++++OH....;
#X connect 45 0 44 1 32.................UC...D9+++e0....g++++aN....;
#X connect 46 0 47 1;
#X connect 47 0 50 0;
#X connect 50 0 52 0;
#X connect 53 0 57 0;
#X connect 54 0 55 0;
#X connect 55 0 53 1 32.................zC....t+++O8....f6+++qP....;
#X connect 55 0 56 1 32.................bF....t+++OmA...f6+++ia....;
#X connect 55 0 57 1 32.................KD...L4++++BA...S9+++WR....;
#X connect 55 0 59 1 32.................h....fG...fH....3A...XF....;
#X connect 55 0 64 1 32.................M....vN...PC....rC...PK....;
#X connect 56 0 47 0;
#X connect 57 0 65 0;
#X connect 58 0 59 0;
#X connect 59 0 62 0;
#X connect 60 0 64 0;
#X connect 61 0 57 2;
#X connect 62 0 60 0;
#X connect 63 0 61 0;
#X connect 64 0 63 0;
#X connect 65 0 56 0;
#X connect 66 0 54 0;
#X connect 67 0 66 0;
#X restore 486 379 pd tanh_clipper;
#X msg 1266 245 4;
#X obj 1143 385 s \$0-upsample;
#X obj 1117 359 t b a;
#X obj 577 350 r \$0-upsample;
#X obj 1117 414 s \$0-bang_param;
#X obj 1169 49 r \$0-bang_param;
#X obj 1246 543 r \$0-oversampling-s;
#X obj 1246 569 bang;
#X msg 1117 274 set 64 1 \$1;
#X msg 1191 274 set 64 1 \$1;
#X msg 1266 274 set 64 1 \$1;
#X floatatom 337 137 5 0 0 0 - - - 12;
#X obj 13 492 r \$0-gain-link;
#X obj 13 570 cyclone/scale -20 20 20 -20;
#X obj 13 707 s \$0-output-r;
#X obj 13 662 spigot;
#X obj 1117 218 sel 1 2 3 4 5, f 54;
#X msg 1340 274 set 64 1 \$1;
#X msg 1415 274 set 64 1 \$1;
#X msg 1340 245 8;
#X msg 1415 245 16;
#X obj 13 518 t b f;
#X obj 13 544 f;
#X obj 50 627 t f f;
#X obj 75 650 sel 1;
#X obj 75 676 del 5;
#X obj 50 601 r \$0-link-s;
#X connect 0 0 9 0;
#X connect 0 0 11 0;
#X connect 1 0 10 0;
#X connect 1 0 12 0;
#X connect 4 0 5 0;
#X connect 5 0 120 0;
#X connect 6 0 112 0;
#X connect 7 0 113 0;
#X connect 9 0 77 0;
#X connect 10 0 78 0;
#X connect 11 0 81 0;
#X connect 12 0 84 0;
#X connect 13 0 15 0;
#X connect 14 0 22 0;
#X connect 15 0 16 0;
#X connect 16 0 9 1;
#X connect 17 0 10 1;
#X connect 18 0 14 0;
#X connect 18 0 13 0;
#X connect 18 0 21 0;
#X connect 18 0 25 0;
#X connect 18 0 115 0;
#X connect 19 0 20 0;
#X connect 20 0 11 1;
#X connect 21 0 19 0;
#X connect 22 0 17 0;
#X connect 23 0 12 1;
#X connect 24 0 23 0;
#X connect 25 0 24 0;
#X connect 26 0 27 0;
#X connect 27 0 28 0;
#X connect 28 0 29 0;
#X connect 29 0 30 0;
#X connect 31 0 26 0;
#X connect 32 0 51 0;
#X connect 33 0 39 0;
#X connect 34 0 32 2;
#X connect 34 0 102 2;
#X connect 39 0 34 0;
#X connect 41 0 46 0;
#X connect 41 0 48 0;
#X connect 41 0 35 0;
#X connect 42 0 43 0;
#X connect 43 0 41 1;
#X connect 45 0 50 0;
#X connect 46 0 45 0;
#X connect 47 0 49 0;
#X connect 48 0 47 0;
#X connect 51 0 56 0;
#X connect 51 0 58 0;
#X connect 51 0 36 0;
#X connect 52 0 53 0;
#X connect 53 0 51 1;
#X connect 55 0 59 0;
#X connect 56 0 55 0;
#X connect 57 0 60 0;
#X connect 58 0 57 0;
#X connect 61 0 63 0;
#X connect 62 0 61 0;
#X connect 64 0 68 0;
#X connect 65 0 64 0;
#X connect 66 0 69 0;
#X connect 67 0 66 0;
#X connect 70 0 72 0;
#X connect 71 0 70 0;
#X connect 79 0 35 0;
#X connect 80 0 36 0;
#X connect 82 0 71 0;
#X connect 82 0 102 0;
#X connect 82 0 103 0;
#X connect 82 0 62 0;
#X connect 83 0 103 1;
#X connect 83 0 32 0;
#X connect 83 0 67 0;
#X connect 83 0 65 0;
#X connect 85 0 26 0;
#X connect 86 0 89 0;
#X connect 86 0 90 0;
#X connect 86 0 88 0;
#X connect 86 0 87 0;
#X connect 91 0 92 0;
#X connect 92 0 94 0;
#X connect 94 0 93 0;
#X connect 102 0 41 0;
#X connect 103 0 102 1;
#X connect 103 1 32 1;
#X connect 104 0 114 0;
#X connect 106 0 108 0;
#X connect 106 1 105 0;
#X connect 107 0 103 2;
#X connect 109 0 86 0;
#X connect 110 0 111 0;
#X connect 111 0 26 0;
#X connect 112 0 106 0;
#X connect 113 0 106 0;
#X connect 114 0 106 0;
#X connect 116 0 125 0;
#X connect 117 0 119 0;
#X connect 119 0 118 0;
#X connect 120 0 6 0;
#X connect 120 1 7 0;
#X connect 120 2 104 0;
#X connect 120 3 123 0;
#X connect 120 4 124 0;
#X connect 121 0 106 0;
#X connect 122 0 106 0;
#X connect 123 0 121 0;
#X connect 124 0 122 0;
#X connect 125 0 126 0;
#X connect 125 1 126 1;
#X connect 126 0 117 0;
#X connect 127 0 119 1;
#X connect 127 1 128 0;
#X connect 128 0 129 0;
#X connect 129 0 126 0;
#X connect 130 0 127 0;
#X restore 897 104 pd code;
#X obj 916 55 adc~;
#X obj 897 147 dac~;
#X text 964 54 Input device;
#X text 955 146 Output device;
#X obj 13 29 cnv 15 87 150 empty empty empty 20 12 0 14 #c4c5be #111111 0;
#X obj 686 29 cnv 15 87 150 empty empty empty 20 12 0 14 #c4c5be #111111 0;
#X obj 133 80 else/knob 71 -20 20 0 0 \$0-input-s \$0-input-r #484848 #7c7c7c #b8635e 0 0 20 0 0 320 0 0 1 empty empty 0 14 23 80 0 1 1 0;
#X obj 497 80 else/knob 71 -20 20 0 0 \$0-output-s \$0-output-r #484848 #7c7c7c #52b85d 0 0 20 0 0 320 0 0 0.1 empty empty 0 14 26 80 0 1 1 0;
#X obj 129 54 cnv 15 8 8 empty empty Input 20 12 0 18 #cfd0c9 #b8635e 0;
#X obj 485 54 cnv 15 8 8 empty empty Output 20 12 0 18 #cfd0c9 #52b85d 0;
#X obj 24 52 vu 20 120 empty L 8 -12 0 12 #404040 #111111 0 0;
#X obj 53 52 vu 20 120 empty R 8 -12 0 10 #404040 #111111 1 0;
#X obj 699 54 vu 20 120 empty L 8 -12 0 12 #404040 #111111 0 0;
#X obj 728 54 vu 20 120 empty R 8 -12 0 12 #404040 #111111 1 0;
#X obj 291 13 cnv 15 8 8 \$0-name_device-s \$0-name_device-r Clippex 20 12 0 36 #cfd0c9 #252525 0;
#X obj 370 192 else/popmenu 50 25 12 #c4c5be #252525 \  \$0-oversampling-r \$0-oversampling-s empty empty 0 0 0 1 1 1 0 0 0 0 0 off x2 x4 x8 x16;
#X obj 261 194 cnv 15 8 8 empty empty Oversampling 15 12 0 14 #cfd0c9 #252525 0;
#X obj 253 80 else/knob 71 -40 0 0 -6 \$0-thresh-s \$0-thresh-r #484848 #7c7c7c #9246b8 0 0 0 0 0 320 0 0 0 empty empty 0 14 26 80 0 1 0 0;
#X obj 241 54 cnv 15 8 8 empty empty Thresh 20 12 0 18 #cfd0c9 #9246b8 0;
#X obj 129 156 cnv 15 8 8 \$0-input.value-s \$0-input.value-r 0.00\ dB 20 12 0 12 #cfd0c9 #b8635e 0;
#X obj 250 156 cnv 15 8 8 \$0-thresh.value-s \$0-thresh.value-r -6.00\ dB 15 12 0 12 #cfd0c9 #9246b8 0;
#X obj 496 156 cnv 15 8 8 \$0-output.value-s \$0-output.value-r 0.00\ dB 20 12 0 12 #cfd0c9 #52b85d 0;
#N canvas 0 50 1331 730 gui 0;
#X obj 9 9 r \$0-input-s;
#X obj 9 75 makefilename %.2f\ dB;
#X obj 9 101 pack s \$0;
#X msg 9 127 \; \$2-input.value-r label \$1;
#X obj 211 380 makefilename %.2f\ dB;
#X obj 211 406 pack s \$0;
#X obj 453 65 makefilename %.2f\ dB;
#X obj 453 91 pack s \$0;
#X obj 211 324 r \$0-thresh-s;
#X msg 211 432 \; \$2-thresh.value-r label \$1;
#X obj 453 9 r \$0-output-s;
#X msg 453 117 \; \$2-output.value-r label \$1;
#X obj 177 75 expr if ($f1 < 0 \, 1 \, 0);
#X obj 177 101 sel 0 1, f 17;
#X obj 177 127 \$0;
#X obj 234 199 \$0;
#X obj 9 35 t f f, f 25;
#X msg 177 153 \; \$1-input.value-r label_pos 20 12;
#X obj 453 35 t f f, f 27;
#X obj 635 65 expr if ($f1 < 0 \, 1 \, 0);
#X obj 635 91 sel 0 1, f 17;
#X obj 635 117 \$0;
#X obj 692 189 \$0;
#X msg 635 143 \; \$1-output.value-r label_pos 20 12;
#X msg 692 215 \; \$1-output.value-r label_pos 15 12;
#X msg 234 225 \; \$1-input.value-r label_pos 15 12;
#X obj 26 324 loadbang;
#X obj 26 373 s \$0-oversampling-r;
#X obj 393 380 expr if ($f1 < 0 \, 1 \, 0);
#X obj 393 406 sel 0 1, f 17;
#X obj 393 432 \$0;
#X obj 450 504 \$0;
#X msg 393 458 \; \$1-thresh.value-r label_pos 20 12;
#X msg 450 530 \; \$1-thresh.value-r label_pos 15 12;
#X obj 211 350 t f f, f 27;
#X obj 933 35 sel 0 1, f 12;
#X obj 933 61 \$0;
#X obj 972 142 \$0;
#X obj 933 9 r \$0-switcher-s;
#X msg 933 87 \; \$1-switcher-r color #C4C5BE #C4C5BE #C4C5BE \; \$1-name_device-r color #CFD0C9 #CFD0C9 #858585;
#X msg 972 168 \; \$1-switcher-r color #C50002 #C50002 #C50002 \; \$1-name_device-r color #CFD0C9 #CFD0C9 #252525;
#X obj 654 324 r \$0-mix-s;
#X obj 654 381 makefilename %d\ %%;
#X obj 654 407 pack s \$0;
#X msg 654 433 \; \$2-mix.value-r label \$1;
#X obj 822 485 \$0;
#X obj 877 569 \$0;
#X obj 654 351 t f f, f 25;
#X msg 822 511 \; \$1-mix.value-r label_pos 20 12;
#X obj 822 381 expr if ($f1 == 100 \, 1 \, 0) \; if ($f1 < 100 && $f1 >= 10 \, 2 \, 0) \; if($f1 < 10 \, 3 \, 0), f 32;
#X obj 822 459 sel 1 2 3, f 25;
#X obj 933 648 \$0;
#X msg 877 595 \; \$1-mix.value-r label_pos 22 12;
#X msg 933 674 \; \$1-mix.value-r label_pos 24 12;
#X obj 1105 367 s pd;
#X msg 1105 341 pluginmode;
#X obj 1105 317 loadbang;
#X obj 1236 343 sel 0 1, f 12;
#X obj 1236 369 \$0;
#X obj 1275 450 \$0;
#X msg 26 347 clear \, add off x2 x4 x8 x16;
#X obj 1299 629 r \$0-page.link-s;
#X msg 1019 743 browse https://github.com/DSBhproject;
#X obj 1019 775 pdcontrol;
#X obj 1326 710 \$0;
#X obj 1298 787 \$0;
#X msg 1298 813 \; \$1-page.link-r color #ADADAD #ADADAD #ADADAD;
#X obj 1299 655 t b b;
#X msg 1326 736 \; \$1-page.link-r color #656565 #656565 #ADADAD;
#X obj 1299 681 del 125;
#X msg 1275 476 \; \$1-link-r color #58759D #58759D #58759D;
#X msg 1236 395 \; \$1-link-r color #484848 #484848 #484848;
#X obj 1236 317 r \$0-link-s;
#X connect 0 0 16 0;
#X connect 1 0 2 0;
#X connect 2 0 3 0;
#X connect 4 0 5 0;
#X connect 5 0 9 0;
#X connect 6 0 7 0;
#X connect 7 0 11 0;
#X connect 8 0 34 0;
#X connect 10 0 18 0;
#X connect 12 0 13 0;
#X connect 13 0 14 0;
#X connect 13 1 15 0;
#X connect 14 0 17 0;
#X connect 15 0 25 0;
#X connect 16 0 1 0;
#X connect 16 1 12 0;
#X connect 18 0 6 0;
#X connect 18 1 19 0;
#X connect 19 0 20 0;
#X connect 20 0 21 0;
#X connect 20 1 22 0;
#X connect 21 0 23 0;
#X connect 22 0 24 0;
#X connect 26 0 60 0;
#X connect 28 0 29 0;
#X connect 29 0 30 0;
#X connect 29 1 31 0;
#X connect 30 0 32 0;
#X connect 31 0 33 0;
#X connect 34 0 4 0;
#X connect 34 1 28 0;
#X connect 35 0 36 0;
#X connect 35 1 37 0;
#X connect 36 0 39 0;
#X connect 37 0 40 0;
#X connect 38 0 35 0;
#X connect 41 0 47 0;
#X connect 42 0 43 0;
#X connect 43 0 44 0;
#X connect 45 0 48 0;
#X connect 46 0 52 0;
#X connect 47 0 42 0;
#X connect 47 1 49 0;
#X connect 49 0 50 0;
#X connect 49 1 50 0;
#X connect 49 2 50 0;
#X connect 50 0 45 0;
#X connect 50 1 46 0;
#X connect 50 2 51 0;
#X connect 51 0 53 0;
#X connect 55 0 54 0;
#X connect 56 0 55 0;
#X connect 57 0 58 0;
#X connect 57 1 59 0;
#X connect 58 0 71 0;
#X connect 59 0 70 0;
#X connect 60 0 27 0;
#X connect 61 0 67 0;
#X connect 62 0 63 0;
#X connect 64 0 68 0;
#X connect 65 0 66 0;
#X connect 67 0 69 0;
#X connect 67 0 62 0;
#X connect 67 1 64 0;
#X connect 69 0 65 0;
#X connect 72 0 57 0;
#X restore 897 206 pd gui;
#X obj 24 -113 r \$0-left.in_rms;
#X obj 37 -88 r \$0-left.in_pk;
#X obj 53 -59 r \$0-right.in_rms;
#X obj 66 -35 r \$0-right.in_pk;
#X obj 699 -113 r \$0-left.out_rms;
#X obj 712 -88 r \$0-left.out_pk;
#X obj 728 -59 r \$0-right.out_rms;
#X obj 741 -35 r \$0-right.out_pk;
#X obj 373 80 else/knob 71 0 100 0 100 \$0-mix-s \$0-mix-r #484848 #7c7c7c #e0a920 0 0 267 0 0 320 0 0 0.1 empty empty 0 14 26 80 0 1 1 0;
#X obj 361 54 cnv 15 8 8 empty empty Mix 35 12 0 18 #cfd0c9 #e0a920 0;
#X obj 377 156 cnv 15 8 8 \$0-mix.value-s \$0-mix.value-r 100\ % 20 12 0 12 #cfd0c9 #e0a920 0;
#X obj 622 117 tgl 15 1 \$0-link-s \$0-link-r empty 17 7 0 10 #484848 #484848 #484848 0 1;
#X obj 602 94 cnv 15 8 8 empty empty Link 15 12 0 14 #cfd0c9 #58759d 0;
#X obj 287 17 tgl 15 1 \$0-switcher-s \$0-switcher-r empty 17 7 0 10 #c50002 #c50002 #c50002 1 1;
#N canvas 0 50 988 389 DAWhost 1;
#X obj 15 12 loadbang;
#X msg 15 108 create;
#X obj 15 134 param param1;
#X obj 35 169 daw_storage param1_str;
#X obj 15 236 s \$0-input-r;
#X obj 39 49 r \$0-input-s;
#X obj 235 12 loadbang;
#X msg 235 108 create;
#X obj 255 169 daw_storage param2_str;
#X obj 261 49 r \$0-thresh-s;
#X obj 235 236 s \$0-thresh-r;
#X obj 475 12 loadbang;
#X msg 475 118 create;
#X obj 495 180 daw_storage param3_str;
#X obj 475 144 param param3;
#X obj 235 134 param param2;
#X obj 489 48 r \$0-mix-s;
#X obj 475 245 s \$0-mix-r;
#X obj 247 295 loadbang;
#X msg 247 321 create;
#X obj 247 347 param param5;
#X obj 269 379 daw_storage param5_str;
#X obj 485 285 loadbang;
#X msg 485 370 create;
#X obj 499 318 r \$0-oversampling-s;
#X obj 485 506 s \$0-oversampling-r;
#X obj 505 438 daw_storage param6_str;
#X obj 485 396 param param6;
#X obj 679 189 loadbang;
#X msg 679 215 create;
#X obj 679 241 param param7;
#X obj 699 283 daw_storage param7_str;
#X obj 770 189 r \$0-switcher-s;
#X obj 679 333 s \$0-switcher-r;
#X obj 39 75 cyclone/scale -20 20 0 1;
#X obj 15 206 cyclone/scale 0 1 -20 20;
#X obj 261 75 cyclone/scale -40 0 0 1;
#X obj 235 204 cyclone/scale 0 1 -40 0;
#X obj 489 79 cyclone/scale 0 100 0 1;
#X obj 475 222 cyclone/scale 0 1 0 100;
#X obj 15 295 loadbang;
#X msg 15 391 create;
#X obj 39 358 cyclone/scale -20 20 0 1;
#X obj 15 489 cyclone/scale 0 1 -20 20;
#X obj 39 332 r \$0-output-s;
#X obj 15 417 param param4;
#X obj 35 453 daw_storage param4_str;
#X obj 15 524 s \$0-output-r;
#X obj 499 344 cyclone/scale 0 4 0 1;
#X obj 485 475 cyclone/scale 0 1 0 4;
#X obj 338 295 r \$0-link-s;
#X obj 247 423 s \$0-link-r;
#X connect 0 0 1 0;
#X connect 1 0 2 0;
#X connect 2 0 3 0;
#X connect 2 0 35 0;
#X connect 3 0 35 0;
#X connect 5 0 34 0;
#X connect 6 0 7 0;
#X connect 7 0 15 0;
#X connect 8 0 37 0;
#X connect 9 0 36 0;
#X connect 11 0 12 0;
#X connect 12 0 14 0;
#X connect 13 0 39 0;
#X connect 14 0 13 0;
#X connect 14 0 39 0;
#X connect 15 0 8 0;
#X connect 15 0 37 0;
#X connect 16 0 38 0;
#X connect 18 0 19 0;
#X connect 19 0 20 0;
#X connect 20 0 51 0;
#X connect 20 0 21 0;
#X connect 21 0 51 0;
#X connect 22 0 23 0;
#X connect 23 0 27 0;
#X connect 24 0 48 0;
#X connect 26 0 49 0;
#X connect 27 0 26 0;
#X connect 27 0 49 0;
#X connect 28 0 29 0;
#X connect 29 0 30 0;
#X connect 30 0 31 0;
#X connect 30 0 33 0;
#X connect 31 0 33 0;
#X connect 32 0 30 0;
#X connect 34 0 2 0;
#X connect 35 0 4 0;
#X connect 36 0 15 0;
#X connect 37 0 10 0;
#X connect 38 0 14 0;
#X connect 39 0 17 0;
#X connect 40 0 41 0;
#X connect 41 0 45 0;
#X connect 42 0 45 0;
#X connect 43 0 47 0;
#X connect 44 0 42 0;
#X connect 45 0 46 0;
#X connect 45 0 43 0;
#X connect 46 0 43 0;
#X connect 48 0 27 0;
#X connect 49 0 25 0;
#X connect 50 0 20 0;
#X restore 803 206 pd DAWhost;
#X obj 761 206 tgl 12 0 \$0-page.link-s \$0-page.link-r Diego\ Serrano\ |\ Visit\ Page -171 6 0 14 #adadad #adadad #adadad 0 1;
#X connect 1 0 3 0;
#X connect 1 1 3 1;
#X connect 2 0 1 0;
#X connect 2 1 1 1;
#X connect 25 0 12 0;
#X connect 26 0 12 1;
#X connect 27 0 13 0;
#X connect 28 0 13 1;
#X connect 29 0 14 0;
#X connect 30 0 14 1;
#X connect 31 0 15 0;
#X connect 32 0 15 1;
